<svg width="54" height="56" viewBox="0 0 54 56" fill="none" xmlns="http://www.w3.org/2000/svg">
<path d="M44.5888 24.7699H40.8244C40.8229 23.2173 40.2275 21.7287 39.1689 20.6308C38.1102 19.5329 36.6749 18.9155 35.1777 18.9139V15.0099C37.6728 15.013 40.0648 16.0423 41.8291 17.872C43.5934 19.7017 44.5858 22.1823 44.5888 24.7699Z" fill="#FFFDC1"/>
<path d="M52.1177 24.7698H48.3533C48.3493 21.1472 46.9599 17.6741 44.4898 15.1126C42.0198 12.551 38.6709 11.1101 35.1777 11.1059V7.20197C39.669 7.20713 43.9748 9.05969 47.1506 12.3532C50.3264 15.6467 52.1127 20.1121 52.1177 24.7698Z" fill="#FFFDC1"/>
<path d="M37.6868 41.3266L41.9029 36.9542C42.4673 36.3687 43.1849 35.9679 43.9668 35.8014C44.7487 35.6348 45.5605 35.7099 46.3017 36.0172L51.4364 38.1488C52.1932 38.4628 52.8419 39.0048 53.2988 39.7048C53.7558 40.4049 54 41.2308 54 42.0762V51.76C54.0013 52.3355 53.8893 52.9053 53.6709 53.4345C53.4526 53.9636 53.1324 54.4409 52.7299 54.8373C52.3275 55.2336 51.8513 55.5406 51.3304 55.7395C50.8096 55.9384 50.2552 56.0249 49.701 55.9938C13.7092 53.671 6.44007 22.0566 5.09052 9.9504C5.02515 9.35855 5.08136 8.75905 5.25543 8.19134C5.4295 7.62363 5.71749 7.10057 6.10046 6.65657C6.48343 6.21257 6.95271 5.85768 7.47742 5.61525C8.00213 5.37283 8.57039 5.24835 9.14482 5.25002H18.3169C19.132 5.24999 19.9284 5.50325 20.6035 5.97713C21.2785 6.45101 21.8011 7.12377 22.1039 7.90862L24.1574 13.2336C24.4537 14.0023 24.5261 14.8442 24.3655 15.6551C24.2049 16.466 23.8184 17.2101 23.2539 17.7954L19.0378 22.1679C19.0378 22.1679 21.3755 39.2126 37.6868 41.3266Z" fill="#FFFDC1"/>
</svg>
