<svg width="59" height="65" viewBox="0 0 59 65" fill="none" xmlns="http://www.w3.org/2000/svg">
<path d="M52.6786 23.5021L30.2291 36.3652C30.0039 36.4942 29.7538 36.5615 29.5 36.5615C29.2462 36.5615 28.9961 36.4942 28.7709 36.3652L6.32145 23.5045V45.8482C6.32133 47.7753 6.99058 49.6294 8.1919 51.0302C9.39322 52.4309 11.0355 53.2722 12.7819 53.3813L13.1697 53.3929H45.8304C47.5796 53.393 49.2625 52.6557 50.534 51.3322C51.8055 50.0087 52.569 48.1994 52.6681 46.2754L52.6786 45.8482V23.5021ZM45.8304 11.6071H13.1697C11.4204 11.607 9.73749 12.3443 8.46603 13.6678C7.19458 14.9913 6.43102 16.8006 6.33199 18.7246L6.32145 19.1518V19.5789L29.5 32.8575L52.6786 19.5789V19.1518C52.6787 17.2247 52.0095 15.3706 50.8081 13.9698C49.6068 12.5691 47.9645 11.7279 46.2181 11.6188L45.8304 11.6071H13.1697H45.8304Z" fill="#FFFDC1"/>
</svg>
