<svg width="63" height="64" viewBox="0 0 63 64" fill="none" xmlns="http://www.w3.org/2000/svg">
<path d="M27.2399 62.176C20.3768 56.04 8.16663 43.504 8.16663 32C8.16663 25.6348 10.6557 19.5303 15.0862 15.0294C19.5168 10.5286 25.5259 8 31.7916 8C38.0574 8 44.0665 10.5286 48.497 15.0294C52.9276 19.5303 55.4166 25.6348 55.4166 32C55.4166 43.504 43.2104 56.04 36.3434 62.176C35.0908 63.3118 33.4706 63.9395 31.7916 63.9395C30.1127 63.9395 28.4924 63.3118 27.2399 62.176V62.176ZM39.6666 32C39.6666 29.8783 38.8369 27.8434 37.3601 26.3431C35.8832 24.8429 33.8802 24 31.7916 24C29.703 24 27.7 24.8429 26.2232 26.3431C24.7463 27.8434 23.9166 29.8783 23.9166 32C23.9166 34.1217 24.7463 36.1566 26.2232 37.6569C27.7 39.1571 29.703 40 31.7916 40C33.8802 40 35.8832 39.1571 37.3601 37.6569C38.8369 36.1566 39.6666 34.1217 39.6666 32Z" fill="#FFFDC1"/>
</svg>
